<svg xmlns="http://www.w3.org/2000/svg" viewBox="0 0 708.39 369.03"><defs><style>.cls-1{fill:#fedb41;stroke:#dcb300;stroke-width:4px;}.cls-1,.cls-2,.cls-3,.cls-4,.cls-5,.cls-6,.cls-7,.cls-8,.cls-9{stroke-miterlimit:10;}.cls-2,.cls-3,.cls-5,.cls-6{fill:none;}.cls-2{stroke:#dab400;}.cls-2,.cls-3,.cls-4,.cls-5,.cls-6,.cls-8,.cls-9{stroke-width:5px;}.cls-3{stroke:#000;}.cls-11,.cls-4{fill:#00acea;}.cls-4,.cls-6,.cls-7{stroke:#0b3861;}.cls-5{stroke:#fff;}.cls-7{fill:#0b3861;stroke-width:6px;}.cls-8{fill:#4b5d63;stroke:#2b3e44;}.cls-9{fill:#b3874c;stroke:#6f4a00;}.cls-10{fill:#fff;}</style></defs><g id="Layer_5" data-name="Layer 5"><path class="cls-1" d="M176.88,318.53H357.37L420,368.05V635H175.08V320.33A1.8,1.8,0,0,1,176.88,318.53Z" transform="translate(-138.18 -316.52)"/><polyline class="cls-2" points="219.2 2 219.2 51.53 281.8 51.53"/><path class="cls-3" d="M382.05,596.86a61.59,61.59,0,0,0,3.53-5.48v9Z" transform="translate(-138.18 -316.52)"/><path class="cls-4" d="M385.58,397.36v128a1.8,1.8,0,0,1-3.26,1.07,60.44,60.44,0,0,0-109.71,35c0,1,0,1.91.07,2.85a60.44,60.44,0,0,0,101.83,41.13,1.8,1.8,0,0,1,2.53,0l8,8a1.81,1.81,0,0,1,.53,1.28v46.83a1.81,1.81,0,0,1-1.81,1.8H142.48a1.8,1.8,0,0,1-1.8-1.8V348.77a1.8,1.8,0,0,1,1.8-1.81H322.35a1.81,1.81,0,0,1,1.12.39l61.42,48.59A1.81,1.81,0,0,1,385.58,397.36Z" transform="translate(-138.18 -316.52)"/><line class="cls-5" x1="51" y1="118.48" x2="198.9" y2="118.48"/><line class="cls-5" x1="51" y1="152.54" x2="198.9" y2="152.54"/><line class="cls-5" x1="172.44" y1="188.82" x2="51" y2="188.82"/><line class="cls-5" x1="51" y1="223.82" x2="137.85" y2="224.88"/><line class="cls-5" x1="136.03" y1="258.81" x2="51" y2="258.82"/><path class="cls-6" d="M323,347V394.7a1.79,1.79,0,0,0,1.79,1.79h60.81" transform="translate(-138.18 -316.52)"/><path class="cls-7" d="M393.49,561.48a60.08,60.08,0,0,1-7.91,29.9,61.59,61.59,0,0,1-3.53,5.48,59.38,59.38,0,0,1-6.26,7.36,60.44,60.44,0,0,1-103.11-39.89c-.05-.94-.07-1.89-.07-2.85a60.44,60.44,0,1,1,120.88,0Z" transform="translate(-138.18 -316.52)"/><path class="cls-8" d="M399,613.76l-6.81,6.81L385.58,614l-9.79-9.79a59.38,59.38,0,0,0,6.26-7.36l3.53,3.53,5.22,5.22Z" transform="translate(-138.18 -316.52)"/><path id="Handle" class="cls-9" d="M460.63,671.8,452,680.43a8.94,8.94,0,0,1-12.66,0l-47.21-47.19a9,9,0,0,1,0-12.67h0l6.81-6.81,1.81-1.81a9,9,0,0,1,12.66,0l47.21,47.2A9,9,0,0,1,460.63,671.8Z" transform="translate(-138.18 -316.52)"/><path class="cls-10" d="M471,526.52l13-15.6c7.58,6.21,16.95,10.47,26.68,10.47s14.09-3.73,14.09-8.64c0-7.22-6-9-15.47-12.95l-13.07-5.58C485.16,490,475,481.47,475,466.86c0-16.62,15-29.9,36.78-29.9a48.6,48.6,0,0,1,33.33,13.14l-11.45,14.31c-7.06-5.07-13.32-7.84-23.12-7.84-7.49,0-12.56,3.1-12.56,9,0,6,6.73,8.24,16.35,11.85l12.28,5.21c13.14,4.92,21.44,13.12,21.44,27.28,0,16.68-14,31.13-38.84,31.13A57.82,57.82,0,0,1,471,526.52Z" transform="translate(-138.18 -316.52)"/><path class="cls-10" d="M563.42,526.52l13-15.6c7.59,6.21,16.95,10.47,26.68,10.47s14.09-3.73,14.09-8.64c0-7.22-6-9-15.46-12.95l-13.07-5.58c-11.13-4.22-21.27-12.75-21.27-27.36,0-16.62,15-29.9,36.77-29.9a48.61,48.61,0,0,1,33.34,13.14l-11.45,14.31c-7.06-5.07-13.32-7.84-23.13-7.84-7.48,0-12.55,3.1-12.55,9,0,6,6.72,8.24,16.35,11.85L619,482.6c13.14,4.92,21.44,13.12,21.44,27.28,0,16.68-14,31.13-38.84,31.13A57.82,57.82,0,0,1,563.42,526.52Z" transform="translate(-138.18 -316.52)"/><path class="cls-10" d="M658.75,438.8h35.69c21.26,0,38.75,7.4,38.75,31.27,0,23.07-17.49,33-38.75,33H681.51v36.11H658.75ZM692.59,485c11.93,0,18.33-5.13,18.33-15s-6.4-13.24-18.33-13.24H681.51V485ZM706,482.52l32,56.65H712.6l-22.34-42.1Z" transform="translate(-138.18 -316.52)"/><path class="cls-10" d="M747.19,489.54C747.19,456,767.6,437,793.67,437c13.51,0,23,6.2,29.32,12.76l-12.5,14c-4.33-4.3-8.9-7.2-16.82-7.2-13.16,0-23,12.11-23,32.22,0,20.63,8.13,32.6,24,32.6,3.75,0,7.6-1,9.74-3V501.1H789.74V482.58h34.93v46.28A48.07,48.07,0,0,1,793.26,541C767.63,541,747.19,523.39,747.19,489.54Z" transform="translate(-138.18 -316.52)"/><path class="cls-10" d="M449.52,565.06l1.61-1.92a5.28,5.28,0,0,0,3.29,1.29c1.19,0,1.74-.46,1.74-1.06,0-.9-.74-1.11-1.91-1.6l-1.61-.69a3.6,3.6,0,0,1-2.62-3.37c0-2.05,1.84-3.69,4.53-3.69a6,6,0,0,1,4.11,1.62l-1.41,1.76a4.46,4.46,0,0,0-2.85-1c-.92,0-1.55.38-1.55,1.1s.83,1,2,1.46l1.51.65c1.62.6,2.65,1.61,2.65,3.36,0,2.06-1.73,3.84-4.79,3.84A7.13,7.13,0,0,1,449.52,565.06Z" transform="translate(-138.18 -316.52)"/><path class="cls-10" d="M463.28,562.72v-3.33H460.9v-2.08l2.5-.11.36-2.88h2.31v2.88h4v2.19h-4v3.29c0,1.44.61,2,2,2a5.55,5.55,0,0,0,1.86-.34l.51,2a10.28,10.28,0,0,1-3.08.51C464.34,566.85,463.28,565.19,463.28,562.72Z" transform="translate(-138.18 -316.52)"/><path class="cls-10" d="M472.54,563V557.2h2.8v5.46c0,1.25.33,1.81,1.37,1.81a2.15,2.15,0,0,0,1.83-1.07v-6.2h2.79v9.42h-2.28l-.2-1.35h-.08a4,4,0,0,1-3.17,1.58C473.45,566.85,472.54,565.4,472.54,563Z" transform="translate(-138.18 -316.52)"/><path class="cls-10" d="M483.66,561.92c0-3.09,2-4.95,4-4.95a3.09,3.09,0,0,1,2.37,1h.07l-.13-1.46v-3.21h2.79v13.3h-2.27l-.21-1h-.07a3.93,3.93,0,0,1-2.61,1.19C485.23,566.85,483.66,565,483.66,561.92Zm6.34,1.77v-3.8a2.21,2.21,0,0,0-1.58-.63c-1,0-1.9.83-1.9,2.62s.68,2.68,1.83,2.68A2,2,0,0,0,490,563.69Z" transform="translate(-138.18 -316.52)"/><path class="cls-10" d="M495.21,561.91a4.81,4.81,0,0,1,4.9-4.94,4.18,4.18,0,0,1,4.44,4.53,7.82,7.82,0,0,1-.12,1.25h-7.15v-1.88h5.26l-.44.54c0-1.52-.66-2.31-1.89-2.31s-2.29.93-2.29,2.81,1.06,2.81,2.9,2.81a5.17,5.17,0,0,0,2.42-.65l.93,1.68a7.21,7.21,0,0,1-3.73,1.1C497.5,566.85,495.21,565,495.21,561.91Z" transform="translate(-138.18 -316.52)"/><path class="cls-10" d="M506.93,557.2h2.28l.2,1.26h.08a4.54,4.54,0,0,1,3.26-1.49c2.13,0,3.07,1.46,3.07,3.83v5.82H513v-5.46c0-1.25-.36-1.81-1.38-1.81a2.64,2.64,0,0,0-1.91,1v6.29h-2.8Z" transform="translate(-138.18 -316.52)"/><path class="cls-10" d="M520.28,562.72v-3.33H517.9v-2.08l2.5-.11.36-2.88h2.31v2.88h4v2.19h-4v3.29c0,1.44.61,2,2,2a5.55,5.55,0,0,0,1.86-.34l.51,2a10.34,10.34,0,0,1-3.08.51C521.34,566.85,520.28,565.19,520.28,562.72Z" transform="translate(-138.18 -316.52)"/><path class="cls-10" d="M540.72,565.06l1.61-1.92a5.28,5.28,0,0,0,3.29,1.29c1.19,0,1.74-.46,1.74-1.06,0-.9-.74-1.11-1.91-1.6l-1.61-.69a3.61,3.61,0,0,1-2.63-3.37c0-2.05,1.85-3.69,4.54-3.69a6,6,0,0,1,4.11,1.62l-1.41,1.76a4.46,4.46,0,0,0-2.85-1c-.93,0-1.55.38-1.55,1.1s.83,1,2,1.46l1.51.65c1.62.6,2.65,1.61,2.65,3.36,0,2.06-1.73,3.84-4.8,3.84A7.1,7.1,0,0,1,540.72,565.06Z" transform="translate(-138.18 -316.52)"/><path class="cls-10" d="M556.45,559.39h-3.8V557.2h6.6v9.42h-2.8Zm-.59-5.37a1.86,1.86,0,0,1,3.72,0,1.87,1.87,0,0,1-3.72,0Z" transform="translate(-138.18 -316.52)"/><path class="cls-10" d="M563.23,557.2h2.1l.2,1.16h.07a2.14,2.14,0,0,1,2-1.39c.81,0,1.41.53,1.64,1.54a2.2,2.2,0,0,1,2.08-1.54c1.35,0,2.11,1.16,2.11,3v6.61h-2.66v-6.41c0-.59-.14-.86-.51-.86s-.6.3-.86.92v6.35h-2.19v-6.41c0-.59-.17-.86-.53-.86s-.59.3-.84.92v6.35h-2.65Z" transform="translate(-138.18 -316.52)"/><path class="cls-10" d="M579.25,559.39h-3.8V557.2h6.6v9.42h-2.8Zm-.59-5.37a1.86,1.86,0,0,1,3.72,0,1.87,1.87,0,0,1-3.72,0Z" transform="translate(-138.18 -316.52)"/><path class="cls-10" d="M589.27,562.94v-7.43h-3v-2.19h5.77v9.73a1.4,1.4,0,0,0,1.53,1.55,4.21,4.21,0,0,0,1.47-.31l.62,2.05a7.85,7.85,0,0,1-2.81.51C590.5,566.85,589.27,565.33,589.27,562.94Z" transform="translate(-138.18 -316.52)"/><path class="cls-10" d="M597.93,564c0-2.11,1.74-3.19,6.19-3.46-.09-.84-.73-1.35-2-1.35a6.58,6.58,0,0,0-2.88.88l-1-1.83a8.89,8.89,0,0,1,4.41-1.28c2.65,0,4.25,1.38,4.25,4.27v5.38h-2.28l-.2-1.06h-.07a5.78,5.78,0,0,1-3.35,1.29A2.85,2.85,0,0,1,597.93,564Zm6.19-.22v-1.55c-2.77.14-3.51.74-3.51,1.55,0,.6.51.9,1.3.9A3.61,3.61,0,0,0,604.12,563.79Z" transform="translate(-138.18 -316.52)"/><path class="cls-10" d="M610.36,557.2h2.29l.22,2.06h.07a4.39,4.39,0,0,1,3.82-2.29,3.92,3.92,0,0,1,1.81.38L618,559.7a4.91,4.91,0,0,0-1.67-.28,3.52,3.52,0,0,0-3.18,2.3v4.9h-2.79Z" transform="translate(-138.18 -316.52)"/><path class="cls-10" d="M624.85,559.39h-3.8V557.2h6.59v9.42h-2.79Zm-.59-5.37a1.86,1.86,0,0,1,3.72,0,1.87,1.87,0,0,1-3.72,0Z" transform="translate(-138.18 -316.52)"/><path class="cls-10" d="M634.27,562.72v-3.33H631.9v-2.08l2.5-.11.36-2.88h2.31v2.88h4v2.19h-4v3.29c0,1.44.61,2,2,2a5.6,5.6,0,0,0,1.86-.34l.51,2a10.34,10.34,0,0,1-3.08.51C635.34,566.85,634.27,565.19,634.27,562.72Z" transform="translate(-138.18 -316.52)"/><path class="cls-10" d="M643.63,570.12l.51-2.13a2.62,2.62,0,0,0,.72.11,1.93,1.93,0,0,0,2-1.22l.18-.5L643,557.2h2.77l1.59,4c.33.88.64,1.84.93,2.83h.08c.25-.94.57-1.91.86-2.83l1.38-4h2.65l-3.72,9.53c-.92,2.35-2,3.58-4.42,3.58A5.52,5.52,0,0,1,643.63,570.12Z" transform="translate(-138.18 -316.52)"/><path class="cls-10" d="M666.48,554.24h4.4c2.62,0,4.78.92,4.78,3.86s-2.16,4.07-4.78,4.07h-1.59v4.45h-2.81Zm4.17,5.71c1.48,0,2.27-.64,2.27-1.85s-.79-1.63-2.27-1.63h-1.36V560Zm1.66-.31,4,7h-3.14l-2.75-5.19Z" transform="translate(-138.18 -316.52)"/><path class="cls-10" d="M677.61,561.91a4.81,4.81,0,0,1,4.9-4.94A4.18,4.18,0,0,1,687,561.5a7.82,7.82,0,0,1-.12,1.25h-7.15v-1.88h5.26l-.44.54c0-1.52-.66-2.31-1.9-2.31s-2.28.93-2.28,2.81,1.06,2.81,2.89,2.81a5.21,5.21,0,0,0,2.43-.65l.93,1.68a7.24,7.24,0,0,1-3.74,1.1C679.89,566.85,677.61,565,677.61,561.91Z" transform="translate(-138.18 -316.52)"/><path class="cls-10" d="M689.33,557.2h2.28l.2,1h.07a4.32,4.32,0,0,1,2.81-1.19c2.35,0,3.78,1.89,3.78,4.79,0,3.24-2,5.09-4.09,5.09a3.37,3.37,0,0,1-2.32-1H692l.13,1.53v2.76h-2.8Zm6.28,4.59c0-1.69-.56-2.53-1.74-2.53a2.34,2.34,0,0,0-1.74.87v3.81a2.43,2.43,0,0,0,1.61.62C694.77,564.56,695.61,563.74,695.61,561.79Z" transform="translate(-138.18 -316.52)"/><path class="cls-10" d="M700.25,561.92a4.81,4.81,0,1,1,4.81,4.93A4.73,4.73,0,0,1,700.25,561.92Zm6.75,0c0-1.64-.65-2.69-1.94-2.69s-1.94,1-1.94,2.69.65,2.68,1.94,2.68S707,563.55,707,561.92Z" transform="translate(-138.18 -316.52)"/><path class="cls-10" d="M713,557.2h2.3l.22,2.06h.07a4.38,4.38,0,0,1,3.82-2.29,3.92,3.92,0,0,1,1.81.38l-.57,2.35a4.91,4.91,0,0,0-1.67-.28,3.52,3.52,0,0,0-3.18,2.3v4.9H713Z" transform="translate(-138.18 -316.52)"/><path class="cls-10" d="M725.47,562.72v-3.33H723.1v-2.08l2.5-.11.36-2.88h2.31v2.88h4v2.19h-4v3.29c0,1.44.6,2,2,2a5.65,5.65,0,0,0,1.86-.34l.51,2a10.34,10.34,0,0,1-3.08.51C726.54,566.85,725.47,565.19,725.47,562.72Z" transform="translate(-138.18 -316.52)"/><path class="cls-10" d="M745.79,560.5c0-4.13,2.52-6.48,5.73-6.48a4.92,4.92,0,0,1,3.62,1.57l-1.54,1.73a2.69,2.69,0,0,0-2.08-.88c-1.62,0-2.84,1.49-2.84,4s1,4,3,4a2,2,0,0,0,1.2-.36v-2.14H751v-2.29h4.31v5.71a5.94,5.94,0,0,1-3.88,1.5C748.31,566.85,745.79,564.68,745.79,560.5Z" transform="translate(-138.18 -316.52)"/><path class="cls-10" d="M757.41,561.91a4.8,4.8,0,0,1,4.9-4.94,4.19,4.19,0,0,1,4.44,4.53,7.82,7.82,0,0,1-.12,1.25h-7.15v-1.88h5.26l-.44.54c0-1.52-.66-2.31-1.9-2.31s-2.29.93-2.29,2.81,1.07,2.81,2.9,2.81a5.21,5.21,0,0,0,2.43-.65l.93,1.68a7.24,7.24,0,0,1-3.74,1.1C759.69,566.85,757.41,565,757.41,561.91Z" transform="translate(-138.18 -316.52)"/><path class="cls-10" d="M769.13,557.2h2.28l.2,1.26h.08a4.52,4.52,0,0,1,3.25-1.49c2.13,0,3.07,1.46,3.07,3.83v5.82h-2.8v-5.46c0-1.25-.36-1.81-1.38-1.81a2.63,2.63,0,0,0-1.9,1v6.29h-2.8Z" transform="translate(-138.18 -316.52)"/><path class="cls-10" d="M780.21,561.91a4.8,4.8,0,0,1,4.9-4.94,4.18,4.18,0,0,1,4.43,4.53,8.07,8.07,0,0,1-.11,1.25h-7.15v-1.88h5.26l-.44.54c0-1.52-.66-2.31-1.9-2.31s-2.29.93-2.29,2.81,1.07,2.81,2.9,2.81a5.21,5.21,0,0,0,2.43-.65l.93,1.68a7.24,7.24,0,0,1-3.74,1.1C782.49,566.85,780.21,565,780.21,561.91Z" transform="translate(-138.18 -316.52)"/><path class="cls-10" d="M792.75,557.2h2.3l.22,2.06h.07a4.37,4.37,0,0,1,3.82-2.29,4,4,0,0,1,1.81.38l-.57,2.35a4.91,4.91,0,0,0-1.67-.28,3.51,3.51,0,0,0-3.18,2.3v4.9h-2.8Z" transform="translate(-138.18 -316.52)"/><path class="cls-10" d="M803.12,564c0-2.11,1.75-3.19,6.2-3.46-.1-.84-.73-1.35-2-1.35a6.58,6.58,0,0,0-2.87.88l-1-1.83a8.92,8.92,0,0,1,4.41-1.28c2.65,0,4.26,1.38,4.26,4.27v5.38h-2.29l-.2-1.06h-.07a5.73,5.73,0,0,1-3.34,1.29A2.85,2.85,0,0,1,803.12,564Zm6.2-.22v-1.55c-2.77.14-3.52.74-3.52,1.55,0,.6.52.9,1.31.9A3.61,3.61,0,0,0,809.32,563.79Z" transform="translate(-138.18 -316.52)"/><path class="cls-10" d="M816.67,562.72v-3.33H814.3v-2.08l2.5-.11.36-2.88h2.31v2.88h4v2.19h-4v3.29c0,1.44.6,2,2,2a5.65,5.65,0,0,0,1.86-.34l.51,2a10.34,10.34,0,0,1-3.08.51C817.74,566.85,816.67,565.19,816.67,562.72Z" transform="translate(-138.18 -316.52)"/><path class="cls-10" d="M825.65,561.92a4.81,4.81,0,1,1,4.81,4.93A4.73,4.73,0,0,1,825.65,561.92Zm6.75,0c0-1.64-.65-2.69-1.94-2.69s-2,1-2,2.69.66,2.68,2,2.68S832.4,563.55,832.4,561.92Z" transform="translate(-138.18 -316.52)"/><path class="cls-10" d="M838.35,557.2h2.3l.22,2.06h.07a4.37,4.37,0,0,1,3.82-2.29,4,4,0,0,1,1.81.38L846,559.7a4.91,4.91,0,0,0-1.67-.28,3.5,3.5,0,0,0-3.18,2.3v4.9h-2.8Z" transform="translate(-138.18 -316.52)"/><circle class="cls-11" cx="194.9" cy="245.29" r="57.63"/><path class="cls-10" d="M285.48,542.51c0-4.11,1.85-6.21,4.64-6.21s4.64,2.1,4.64,6.21-1.84,6.31-4.64,6.31S285.48,546.6,285.48,542.51Zm6.79,0c0-3.14-.95-4-2.15-4s-2.15.91-2.15,4,.95,4.15,2.15,4.15S292.27,545.64,292.27,542.51Zm-3.57,0a1.43,1.43,0,1,1,1.42,1.45A1.38,1.38,0,0,1,288.7,542.47Z" transform="translate(-138.18 -316.52)"/><path class="cls-10" d="M297.32,546.33h3.25v-7H297.9v-1.74a8.38,8.38,0,0,0,3.41-1.09h2.06v9.8h2.74v2.26h-8.79Z" transform="translate(-138.18 -316.52)"/><path class="cls-10" d="M308.28,542.51c0-4.11,1.85-6.21,4.64-6.21s4.64,2.1,4.64,6.21-1.84,6.31-4.64,6.31S308.28,546.6,308.28,542.51Zm6.79,0c0-3.14-.95-4-2.15-4s-2.15.91-2.15,4,1,4.15,2.15,4.15S315.07,545.64,315.07,542.51Zm-3.57,0a1.43,1.43,0,1,1,1.42,1.45A1.38,1.38,0,0,1,311.5,542.47Z" transform="translate(-138.18 -316.52)"/><path class="cls-10" d="M319.68,542.51c0-4.11,1.85-6.21,4.64-6.21s4.64,2.1,4.64,6.21-1.84,6.31-4.64,6.31S319.68,546.6,319.68,542.51Zm6.79,0c0-3.14-1-4-2.15-4s-2.15.91-2.15,4,.95,4.15,2.15,4.15S326.47,545.64,326.47,542.51Zm-3.57,0a1.43,1.43,0,1,1,1.42,1.45A1.38,1.38,0,0,1,322.9,542.47Z" transform="translate(-138.18 -316.52)"/><path class="cls-10" d="M331.52,546.33h3.25v-7H332.1v-1.74a8.38,8.38,0,0,0,3.41-1.09h2.06v9.8h2.74v2.26h-8.79Z" transform="translate(-138.18 -316.52)"/><path class="cls-10" d="M342.48,542.51c0-4.11,1.85-6.21,4.64-6.21s4.64,2.1,4.64,6.21-1.84,6.31-4.64,6.31S342.48,546.6,342.48,542.51Zm6.79,0c0-3.14-.95-4-2.15-4s-2.15.91-2.15,4,.95,4.15,2.15,4.15S349.27,545.64,349.27,542.51Zm-3.57,0a1.43,1.43,0,1,1,1.42,1.45A1.38,1.38,0,0,1,345.7,542.47Z" transform="translate(-138.18 -316.52)"/><path class="cls-10" d="M354.32,546.33h3.25v-7H354.9v-1.74a8.38,8.38,0,0,0,3.41-1.09h2.06v9.8h2.74v2.26h-8.79Z" transform="translate(-138.18 -316.52)"/><path class="cls-10" d="M285.92,580h3.25v-7H286.5v-1.73a8.52,8.52,0,0,0,3.41-1.1H292V580h2.74v2.25h-8.79Z" transform="translate(-138.18 -316.52)"/><path class="cls-10" d="M296.88,576.13c0-4.11,1.85-6.21,4.64-6.21s4.64,2.1,4.64,6.21-1.84,6.31-4.64,6.31S296.88,580.22,296.88,576.13Zm6.79,0c0-3.14-.95-4-2.15-4s-2.14.91-2.14,4,.95,4.15,2.14,4.15S303.67,579.26,303.67,576.13Zm-3.57,0a1.43,1.43,0,1,1,1.42,1.45A1.38,1.38,0,0,1,300.1,576.09Z" transform="translate(-138.18 -316.52)"/><path class="cls-10" d="M308.72,580H312v-7H309.3v-1.73a8.52,8.52,0,0,0,3.41-1.1h2.06V580h2.74v2.25h-8.79Z" transform="translate(-138.18 -316.52)"/><path class="cls-10" d="M320.12,580h3.25v-7H320.7v-1.73a8.52,8.52,0,0,0,3.41-1.1h2.06V580h2.74v2.25h-8.79Z" transform="translate(-138.18 -316.52)"/><path class="cls-10" d="M331.52,580h3.25v-7H332.1v-1.73a8.52,8.52,0,0,0,3.41-1.1h2.06V580h2.74v2.25h-8.79Z" transform="translate(-138.18 -316.52)"/><path class="cls-10" d="M342.48,576.13c0-4.11,1.85-6.21,4.64-6.21s4.64,2.1,4.64,6.21-1.84,6.31-4.64,6.31S342.48,580.22,342.48,576.13Zm6.79,0c0-3.14-.95-4-2.15-4s-2.15.91-2.15,4,.95,4.15,2.15,4.15S349.27,579.26,349.27,576.13Zm-3.57,0a1.43,1.43,0,1,1,1.42,1.45A1.38,1.38,0,0,1,345.7,576.09Z" transform="translate(-138.18 -316.52)"/><path class="cls-10" d="M354.32,580h3.25v-7H354.9v-1.73a8.52,8.52,0,0,0,3.41-1.1h2.06V580h2.74v2.25h-8.79Z" transform="translate(-138.18 -316.52)"/></g></svg>